HIERARCHY
ROOT Hips
{
	OFFSET 0.00000 0.00000 0.00000
	CHANNELS 6 Xposition Yposition Zposition Zrotation Yrotation Xrotation 
	JOINT LHipJoint
	{
		OFFSET 0 0 0
		CHANNELS 3 Zrotation Yrotation Xrotation
		JOINT LeftUpLeg
		{
			OFFSET 1.56857 -1.73443 1.15205
			CHANNELS 3 Zrotation Yrotation Xrotation
			JOINT LeftLeg
			{
				OFFSET 2.39362 -6.57643 0.00000
				CHANNELS 3 Zrotation Yrotation Xrotation
				JOINT LeftFoot
				{
					OFFSET 2.50952 -6.89485 0.00000
					CHANNELS 3 Zrotation Yrotation Xrotation
					JOINT LeftToeBase
					{
						OFFSET 0.17171 -0.47178 1.88682
						CHANNELS 3 Zrotation Yrotation Xrotation
						End Site
						{
							OFFSET 0.00000 -0.00000 0.98146
						}
					}
				}
			}
		}
	}
	JOINT RHipJoint
	{
		OFFSET 0 0 0
		CHANNELS 3 Zrotation Yrotation Xrotation
		JOINT RightUpLeg
		{
			OFFSET -1.28153 -1.73443 1.15205
			CHANNELS 3 Zrotation Yrotation Xrotation
			JOINT RightLeg
			{
				OFFSET -2.26861 -6.23296 0.00000
				CHANNELS 3 Zrotation Yrotation Xrotation
				JOINT RightFoot
				{
					OFFSET -2.54143 -6.98254 0.00000
					CHANNELS 3 Zrotation Yrotation Xrotation
					JOINT RightToeBase
					{
						OFFSET -0.23309 -0.64041 1.93119
						CHANNELS 3 Zrotation Yrotation Xrotation
						End Site
						{
							OFFSET -0.00000 -0.00000 1.02013
						}
					}
				}
			}
		}
	}
	JOINT LowerBack
	{
		OFFSET 0 0 0
		CHANNELS 3 Zrotation Yrotation Xrotation
		JOINT Spine
		{
			OFFSET -0.07096 2.10460 -0.27878
			CHANNELS 3 Zrotation Yrotation Xrotation
			JOINT Spine1
			{
				OFFSET -0.00826 2.13662 -0.08279
				CHANNELS 3 Zrotation Yrotation Xrotation
				JOINT Neck
				{
					OFFSET 0 0 0
					CHANNELS 3 Zrotation Yrotation Xrotation
					JOINT Neck1
					{
						OFFSET 0.03239 1.77799 0.24435
						CHANNELS 3 Zrotation Yrotation Xrotation
						JOINT Head
						{
							OFFSET 0.01026 1.74194 -0.49664
							CHANNELS 3 Zrotation Yrotation Xrotation
							End Site
							{
								OFFSET 0.00170 1.83057 -0.19653
							}
						}
					}
				}
				JOINT LeftShoulder
				{
					OFFSET 0 0 0
					CHANNELS 3 Zrotation Yrotation Xrotation
					JOINT LeftArm
					{
						OFFSET 3.19178 1.35907 -0.31412
						CHANNELS 3 Zrotation Yrotation Xrotation
						JOINT LeftForeArm
						{
							OFFSET 4.85247 -0.00000 -0.00000
							CHANNELS 3 Zrotation Yrotation Xrotation
							JOINT LeftHand
							{
								OFFSET 3.55584 -0.00000 0.00000
								CHANNELS 3 Zrotation Yrotation Xrotation
								JOINT LeftFingerBase
								{
									OFFSET 0 0 0
									CHANNELS 3 Zrotation Yrotation Xrotation
									JOINT LeftHandIndex1
									{
										OFFSET 0.69320 -0.00000 0.00000
										CHANNELS 3 Zrotation Yrotation Xrotation
										End Site
										{
											OFFSET 0.55888 -0.00000 0.00000
										}
									}
								}
								JOINT LThumb
								{
									OFFSET 0 0 0
									CHANNELS 3 Zrotation Yrotation Xrotation
									End Site
									{
										OFFSET 0.56741 -0.00000 0.56741
									}
								}
							}
						}
					}
				}
				JOINT RightShoulder
				{
					OFFSET 0 0 0
					CHANNELS 3 Zrotation Yrotation Xrotation
					JOINT RightArm
					{
						OFFSET -3.28999 1.24191 -0.26899
						CHANNELS 3 Zrotation Yrotation Xrotation
						JOINT RightForeArm
						{
							OFFSET -4.64462 -0.00000 0.00000
							CHANNELS 3 Zrotation Yrotation Xrotation
							JOINT RightHand
							{
								OFFSET -3.40703 -0.00000 0.00000
								CHANNELS 3 Zrotation Yrotation Xrotation
								JOINT RightFingerBase
								{
									OFFSET 0 0 0
									CHANNELS 3 Zrotation Yrotation Xrotation
									JOINT RightHandIndex1
									{
										OFFSET -0.61958 -0.00000 0.00000
										CHANNELS 3 Zrotation Yrotation Xrotation
										End Site
										{
											OFFSET -0.49952 -0.00000 0.00000
										}
									}
								}
								JOINT RThumb
								{
									OFFSET 0 0 0
									CHANNELS 3 Zrotation Yrotation Xrotation
									End Site
									{
										OFFSET -0.50715 -0.00000 0.50715
									}
								}
							}
						}
					}
				}
			}
		}
	}
}
MOTION
Frames: 10
Frame Time: .0083333
-30.3492 17.0723 1.139 0 0 0 0 0 0 -21 0 0 0 0 0 0 0 0 0 0 0 0 0 0 21 0 0 0 0 0 0 0 0 0 0 0 0 0 0 0 0 0 0 0 0 0 0 -16 0 0 21 0 0 11 0 0 0 -8 0 0 0 0 0 0 0 0 0 0 0 0 0 0 0 0 0 0 0 0 8 0 0 0 0 0 0 0 0 0 0 0 0 0 0 0 0 0
-30.3492 17.0723 1.1390 20.5079 84.7367 20.7673 0.0000 0.0000 0.0000 -18.3503 6.3758 9.4068 0.0016 -0.2574 -0.7072 0.1469 12.8626 -20.0097 0.2263 -3.0624 -8.4524 0.0000 0.0000 0.0000 14.7702 -5.3731 5.1851 -0.0370 -1.2422 3.4154 -0.7252 2.1230 -15.5066 -0.4689 -4.3918 12.1818 -5.4311 1.6400 4.6573 0.0418 1.9373 0.9678 2.9671 1.0019 -1.7938 4.8214 2.5167 -22.3319 -3.2959 3.2433 28.1257 -1.5024 1.6081 13.3386 -0.0000 0.0000 0.0000 -0.0000 0.0000 -0.0000 -0.0000 0.0000 -0.0000 -0.0000 0.0000 0.0000 -0.0000 -0.0000 0.0000 -0.0000 -0.0000 0.0000 -0.0000 0.0000 0.0000 -0.0000 0.0000 0.0000 0.0000 -0.0000 -0.0000 0.0000 -0.0000 -0.0000 0.0000 0.0000 0.0000 0.0000 0.0000 0.0000 0.0000 0.0000 0.0000 0.0000 -0.0000 0.0000
-30.3452 17.0748 1.1407 21.4851 84.7337 21.7132 0.0000 0.0000 0.0000 -18.4528 6.4122 9.4194 0.0014 -0.2432 -0.6681 0.1460 12.8472 -19.9808 0.2671 -3.3245 -9.1835 0.0000 0.0000 0.0000 14.4288 -6.1428 5.1633 -0.0306 -1.1298 3.1061 -0.6950 2.7105 -15.0614 -0.5014 -4.5395 12.5996 -5.6476 1.5707 4.7456 0.1097 1.8294 0.9537 3.1636 0.9513 -1.8566 4.2370 2.4736 -22.8072 -2.7627 3.2286 28.5884 -1.1944 1.6120 13.6084 0.0000 -0.0000 0.0000 -0.0000 0.0000 -0.0000 -0.0000 0.0000 -0.0000 -0.0000 0.0000 0.0000 -0.0000 -0.0000 0.0000 -0.0000 -0.0000 0.0000 -0.0000 0.0000 0.0000 0.0000 -0.0000 0.0000 0.0000 -0.0000 -0.0000 0.0000 -0.0000 -0.0000 0.0000 0.0000 0.0000 0.0000 0.0000 0.0000 0.0000 0.0000 0.0000 0.0000 -0.0000 0.0000
-30.3431 17.0751 1.1437 22.8353 84.6984 23.0684 0.0000 0.0000 0.0000 -18.7014 6.1116 9.5813 0.0020 -0.2899 -0.7967 0.1218 13.1754 -20.1379 0.2508 -3.2227 -8.8993 0.0000 0.0000 0.0000 14.3589 -5.7986 5.0576 -0.0383 -1.2640 3.4755 -0.7237 2.5594 -15.4065 -0.5126 -4.5891 12.7403 -5.8929 1.5501 4.7854 0.1389 1.7872 0.9385 3.3332 0.9332 -1.8987 4.5410 2.6385 -22.5829 -3.1184 3.4744 28.4242 -1.3427 1.7034 13.5178 0.0000 -0.0000 0.0000 -0.0000 0.0000 -0.0000 -0.0000 0.0000 -0.0000 -0.0000 0.0000 0.0000 -0.0000 -0.0000 0.0000 -0.0000 -0.0000 0.0000 -0.0000 0.0000 0.0000 0.0000 -0.0000 0.0000 0.0000 -0.0000 -0.0000 0.0000 -0.0000 -0.0000 0.0000 0.0000 0.0000 0.0000 0.0000 0.0000 0.0000 0.0000 0.0000 0.0000 -0.0000 0.0000
-30.3408 17.0730 1.1465 22.4664 84.7191 22.6549 0.0000 0.0000 0.0000 -18.7539 5.7585 9.8645 0.0030 -0.3524 -0.9684 0.1017 13.5355 -20.3896 0.2205 -3.0226 -8.3417 0.0000 0.0000 0.0000 14.3572 -6.0282 5.4377 -0.0253 -1.0271 2.8233 -0.6894 2.5527 -15.0242 -0.4911 -4.4935 12.4693 -5.9272 1.5559 4.8189 0.1897 1.7929 0.9673 3.4043 0.9356 -1.8908 4.5749 2.6205 -22.6550 -3.1690 3.4428 28.3866 -1.3738 1.6840 13.5174 0.0000 -0.0000 0.0000 -0.0000 0.0000 -0.0000 -0.0000 0.0000 -0.0000 -0.0000 0.0000 0.0000 -0.0000 -0.0000 0.0000 -0.0000 -0.0000 0.0000 -0.0000 0.0000 0.0000 0.0000 -0.0000 0.0000 0.0000 -0.0000 -0.0000 0.0000 -0.0000 -0.0000 0.0000 0.0000 0.0000 0.0000 0.0000 0.0000 0.0000 0.0000 0.0000 0.0000 -0.0000 0.0000
-30.3385 17.0715 1.1470 20.6267 84.7649 20.7490 0.0000 0.0000 0.0000 -18.4249 6.0397 9.8141 0.0023 -0.3100 -0.8518 0.1259 13.2377 -20.2630 0.2109 -2.9567 -8.1583 0.0000 0.0000 0.0000 14.5954 -5.9772 5.5328 -0.0257 -1.0344 2.8436 -0.6929 2.5647 -15.0624 -0.4970 -4.5200 12.5443 -5.7378 1.5714 4.8720 0.2447 1.8216 0.9967 3.3520 0.9483 -1.8892 4.2625 2.6240 -22.8224 -2.7992 3.4404 28.4786 -1.1739 1.6990 13.5761 -0.0000 0.0000 0.0000 -0.0000 0.0000 -0.0000 -0.0000 0.0000 -0.0000 -0.0000 0.0000 0.0000 -0.0000 -0.0000 0.0000 -0.0000 -0.0000 0.0000 -0.0000 0.0000 0.0000 -0.0000 0.0000 0.0000 0.0000 -0.0000 -0.0000 0.0000 -0.0000 -0.0000 0.0000 0.0000 0.0000 0.0000 0.0000 0.0000 0.0000 0.0000 0.0000 0.0000 -0.0000 0.0000
-30.3360 17.0701 1.1473 20.7639 84.7416 20.9152 0.0000 0.0000 0.0000 -18.3016 6.4350 9.5847 0.0016 -0.2616 -0.7188 0.1426 12.8899 -19.9975 0.1944 -2.8396 -7.8326 0.0000 0.0000 0.0000 14.6879 -5.6015 5.3527 -0.0350 -1.2072 3.3190 -0.7290 2.3979 -15.4935 -0.4911 -4.4931 12.4683 -5.3475 1.6718 4.6701 -0.0054 1.9906 1.1577 2.8708 1.0208 -1.6052 4.4602 2.4790 -22.9451 -2.8736 3.1536 28.3027 -1.2886 1.5801 13.5202 0.0000 -0.0000 0.0000 -87.4555 -0.8132 39.0090 11.4029 -18.9032 -1.9044 -0.0000 -0.0000 17.1864 14.3164 -26.4206 -6.4784 -7.1250 0.0000 -0.0000 -9.3703 3.1438 8.9648 0.0000 -0.0000 0.0000 0.0000 -0.0000 -0.0000 0.0000 -0.0000 -0.0000 0.0000 0.0000 0.0000 0.0000 0.0000 0.0000 0.0000 0.0000 0.0000 0.0000 -0.0000 0.0000
-30.3345 17.0675 1.1502 21.2647 84.7361 21.4996 0.0000 0.0000 0.0000 -18.3008 6.5419 9.4315 0.0015 -0.2491 -0.6844 0.1374 12.8374 -19.8729 0.2192 -3.0137 -8.3169 0.0000 0.0000 0.0000 14.7047 -5.4176 5.1856 -0.0401 -1.2923 3.5534 -0.7485 2.2746 -15.7311 -0.4541 -4.3233 11.9879 -5.4173 1.6802 4.6460 -0.0172 1.9969 1.0920 2.8969 1.0265 -1.6621 4.6825 2.5865 -22.8827 -3.0781 3.2958 28.2873 -1.3814 1.6384 13.5164 -0.0000 0.0000 0.0000 -87.4703 -0.7192 38.8466 11.4255 -18.9375 -1.9117 -0.0000 -0.0000 17.3480 13.7589 -26.4687 -6.2285 -7.1250 0.0000 -0.0000 -9.7080 3.1738 9.2921 -0.0000 0.0000 0.0000 0.0000 -0.0000 -0.0000 0.0000 -0.0000 -0.0000 0.0000 0.0000 0.0000 0.0000 0.0000 0.0000 0.0000 0.0000 0.0000 0.0000 -0.0000 0.0000
-30.3331 17.0661 1.1526 21.0707 84.7697 21.3222 0.0000 0.0000 0.0000 -18.2498 6.5606 9.3845 0.0013 -0.2285 -0.6279 0.1217 12.8551 -19.7199 0.2945 -3.4897 -9.6452 0.0000 0.0000 0.0000 14.7586 -5.4000 5.2023 -0.0393 -1.2794 3.5179 -0.7487 2.2374 -15.7405 -0.4475 -4.2918 11.8992 -5.4010 1.6803 4.6515 -0.0127 1.9967 1.0728 2.8918 1.0272 -1.6846 4.7623 2.5453 -22.9046 -3.1291 3.2216 28.3132 -1.4289 1.6079 13.5308 0.0000 -0.0000 0.0000 -87.4509 -0.6794 38.8660 11.4345 -18.9512 -1.9146 -0.0000 -0.0000 17.3308 13.0390 -26.6368 -5.9276 -7.1250 0.0000 -0.0000 -10.1495 3.1049 9.7413 0.0000 -0.0000 0.0000 0.0000 -0.0000 -0.0000 0.0000 -0.0000 -0.0000 0.0000 0.0000 0.0000 0.0000 0.0000 0.0000 0.0000 0.0000 0.0000 0.0000 -0.0000 0.0000
-30.3290 17.0655 1.1542 22.6545 84.7668 22.9259 0.0000 0.0000 0.0000 -18.5368 6.2330 9.5517 0.0018 -0.2754 -0.7567 0.0947 13.1577 -19.8128 0.3235 -3.6561 -10.1110 0.0000 0.0000 0.0000 14.6089 -5.3967 5.2334 -0.0386 -1.2681 3.4867 -0.7394 2.1389 -15.6596 -0.4276 -4.1965 11.6303 -5.5366 1.6627 4.5707 -0.0524 1.9724 1.0883 2.9310 1.0139 -1.6241 4.7112 2.5945 -22.9849 -3.0824 3.3012 28.4291 -1.3870 1.6442 13.5985 -0.0000 0.0000 0.0000 -87.4755 -0.6847 38.7170 11.4304 -18.9449 -1.9133 -0.0000 -0.0000 17.4858 13.0982 -26.6588 -5.9598 -7.1250 0.0000 -0.0000 -10.1155 3.0749 9.7132 -0.0000 0.0000 0.0000 0.0000 -0.0000 -0.0000 0.0000 -0.0000 -0.0000 0.0000 0.0000 0.0000 0.0000 0.0000 0.0000 0.0000 0.0000 0.0000 0.0000 -0.0000 0.0000
